<?xml version="1.0" ?><svg data-name="Layer 1" id="Layer_1" viewBox="0 0 512 512" xmlns="http://www.w3.org/2000/svg" xmlns:xlink="http://www.w3.org/1999/xlink"><defs><style>.cls-1{fill:url(#linear-gradient);}.cls-2{fill:url(#linear-gradient-2);}.cls-3{fill:url(#linear-gradient-3);}.cls-4{fill:url(#linear-gradient-4);}</style><linearGradient gradientUnits="userSpaceOnUse" id="linear-gradient" x1="44.44" x2="544.96" y1="552.467" y2="51.947"><stop offset="0" stop-color="#b01d06"/><stop offset="1" stop-color="#ff2100"/></linearGradient><linearGradient id="linear-gradient-2" x1="-12.076" x2="488.444" xlink:href="#linear-gradient" y1="495.951" y2="-4.57"/><linearGradient id="linear-gradient-3" x1="41.473" x2="541.994" xlink:href="#linear-gradient" y1="549.501" y2="48.98"/><linearGradient id="linear-gradient-4" x1="1.986" x2="502.507" xlink:href="#linear-gradient" y1="510.014" y2="9.493"/></defs><title/><path class="cls-1" d="M305.5,336.072a89.989,89.989,0,0,1-99,0,5.8,5.8,0,1,0-6.4,9.668,101.594,101.594,0,0,0,111.8,0,5.8,5.8,0,0,0-6.4-9.668Z"/><circle class="cls-2" cx="202.451" cy="281.424" r="22.401"/><circle class="cls-3" cx="309.55" cy="281.424" r="22.401"/><path class="cls-4" d="M256,0C114.615,0,0,114.615,0,256S114.615,512,256,512,512,397.385,512,256,397.385,0,256,0ZM389.309,288.383a65.221,65.221,0,0,1,.957,11.093c0,51.289-60.112,92.867-134.266,92.867s-134.266-41.578-134.266-92.867a65.323,65.323,0,0,1,.957-11.093,33.28,33.28,0,1,1,37.135-53.7c23.06-16.372,54.779-26.878,90.044-27.974l16.842-81.227a7.307,7.307,0,0,1,8.606-5.679l56.573,11.448a22.808,22.808,0,1,1-2.9,14.325L279.546,135.57l-14.771,71.241c34.205,1.527,64.918,11.91,87.4,27.872a33.278,33.278,0,1,1,37.135,53.7Z"/></svg>